<svg xmlns="http://www.w3.org/2000/svg" viewBox="0 0 972.02 229.42"><defs><style>.cls-1{fill:#fff;stroke:#000;stroke-miterlimit:10;}</style></defs><title>Asset 1</title><g id="Layer_2" data-name="Layer 2"><g id="svg8811"><path class="cls-1" d="M603.15,205.7v0l3.38-.53v0h0v-1.61l4.14-.85v-10.4h0v-1.26h0V148.6l-4.15-.83,0-1.83-3.54-.26v-1.3l-13.59-3.09h0l-5-1.14-.19-1.52h.24l-.23-1.94h0v-.06h.24l-.24-2h.24l-.23-1.94h0v-1.55h0v-.86h0V130h.1l2.43,0,.36-1.12-2.33-.94,2.67-1.64v-5l-1.06-1,3-.9.43-1.29h0l-1.71-.32-3.75-.7v-7.17a2.5,2.5,0,0,1,1.21-1.09l44-23c2.08-1,4.38-2,7.24-3.14,2.14-.82,4.24-1.55,6.35-2.17,3.19-.8,7.26-1.59,9.87-2,.66-.07,1.32-.14,2-.18l22.49.13c6.4,2.45,12.16,5.26,18.16,7.41s10.86,4.09,17,5.32l1.18,2.46L725,98.27h.94v.48h1.66c.09.14.19.27.29.41h-1.38a13.85,13.85,0,0,0,3,2.73h.91c3.73,3.12,9.41,5.12,15.77,5.11s12-2,15.75-5.11h.76a13.85,13.85,0,0,0,3-2.73h-1.23c.1-.14.2-.27.29-.41h1.48v-.38h4.1L775,96.84h0l0,0L789.43,92l.93-3.7a149.65,149.65,0,0,0,18.26-7.08,111.22,111.22,0,0,1,22.92-7.61,1.33,1.33,0,0,0,2.64-.17,1.17,1.17,0,0,0-.08-.38c7.16-1.49,14-2.43,20.14-3.32H958.57l.18.23H959l.21.34h.72a.94.94,0,0,0,1.87,0h.73l.17-.34h.26l.15-.23h.74c2.11-.44,3.22-1.46,3.93-3.81a69.59,69.59,0,0,0,3.69-12.35l.08-1.41h0v0a1.49,1.49,0,0,0-1.58-1.23h-.12l-.19-.3h-.26l-.17-.34h-.73a.94.94,0,0,0-1.87,0h-.72l-.21.34h-.21l-.23.3H932.27C913.36,50.15,894,49.14,874.88,47l-36.09-6.35a1.3,1.3,0,0,0-1.31-1.25,1.32,1.32,0,0,0-1.25.8l-8.58-1.51c-3.33-.84-6.65-1.73-9.94-2.7-6.26-2-13.12-3.8-20.1-4h-3.24l-5.12-3.91h-1.1l-5-3.48.45-.45-.06,0,.06-.06-5.74-3.75a10.51,10.51,0,0,0-5.44-1.88H771l-1.27-1.82a4.58,4.58,0,0,0-.56-.35,7.79,7.79,0,0,0-3-.86l-.77-.07C763,13.16,761,10.47,758.15,9H758a8.55,8.55,0,0,0-4-2.75h-.87a18.59,18.59,0,0,0-14.19,0l-.94,0A8.24,8.24,0,0,0,734.16,9H723l-.14-.28h-.73a.94.94,0,0,0-1.87,0h-.72l-.17.28h-3.18V9.9h-.08v8.56H702c-6.22.72-10.58,3-13.48,5.68l.1.47-9.83,9.63-1.13,0a12.9,12.9,0,0,1-3.35,1.67q-6.12,1.83-12.24,3.33L625.31,46q-5.46.72-10.94,1.32H589V45.89H571.64c-1.54-1.27-4.42-2.13-7.73-2.13s-6.19.86-7.73,2.13H535.89V46H509.43c-1.69,0-3.4.15-3.78,1.07L509,61.41c.68.78,6.15,3.35,7.27,3.53L519,68h.27l.07.08L470.66,111l.22.28v.15h0l-6.12,5.48h-.67c-3.86,3.43-7.51,6.72-13,8.69-7.87.86-15.84,1.18-23.73,1.93l-91.72-66.2a8,8,0,0,1-1.33-1.49H364.9a13.77,13.77,0,0,0,10-6.9l91.26,0a16.49,16.49,0,0,0,1.69-.24h0c.45-.09.89-.19,1.32-.31l.35-.11q.53-.16,1-.36l.17-.06a14.58,14.58,0,0,0,7.76-7.15l14.41-29.91h0v-.06l0-.09h0l0-2.35h0V15h.3V12.18H493a6,6,0,0,0-.06-.87v-.11a3.39,3.39,0,0,0-.59-1.69,7.59,7.59,0,0,0-4.48-3.43l-7.86,0h-1a17,17,0,0,0-9.59-3H408.94v0h-.09v-1h-.53c-.56-.9-2.79-1.58-5.47-1.58s-4.91.68-5.47,1.58h-.94v1h-.05v-1h0L230.31,3.69l-77.42.08-41.57,0-7.89.33h0c-2.89.13-5.74.23-8.49.33C86.69,4.61,78.7,5,74.38,6.2a7.78,7.78,0,0,0-2.79,1.23h0l0,0h0l0,0h0L20.3,7.44l-.2-.32h-.26l-.18-.35H18.9a.94.94,0,0,0-1.87,0h-.69l-.21.35h-.21l-.24.32-14.51,0h0l2.56,2.72v2.16l1,1.1-.05,2.12L20,33.08H17.28l3.56,4.38,2.92,0L35.6,51l1.1,0a6.36,6.36,0,0,0,2.71,2,3.59,3.59,0,0,0,1.27,0c17.92-5.54,35-8.6,52-8.3v0l35.31.08a35.61,35.61,0,0,0,4.08,1.88c9.9,4,22.86,5.45,35.43,6.35h.35l52.5,0c1.55,3.29,4.92,5.13,8.1,7h.2l150,73.7c-29.25,4-58.78,7.8-88.6,9.84l-.15-.21h-.26l-.19-.34-.73,0a.94.94,0,0,0-1.87.09l-.72,0-.19.35h-.21l-.22.32-3.08.2-1.53,1.29,0,0-.07-.06h0c-2.64.79-8,2.28-7.81,5.35h0l2.06,3.24,0,0L275,154l-12.86,21-5.2,0v.93l3,4.84c7.65.31,16.13,1,25,2l1.72,1.81.16.29.43.05a.93.93,0,0,0,1.85.23l.75.09L290,185l3.43.43,1.43-1.36c9,1.32,18.09,3,26.94,5.22,14.87,3.63,24.91,6.55,31.82,9.94,7.27,3.56,11.1,7.55,13.81,12.53h0v0h0a31,31,0,0,1,1.54,3.11c9.42-.08,19,1.46,28.44,2.64,26,3.26,52.53,7.33,79.18,9.12h0c6.08.34,12.29.58,18.57.68l.24.31h.21l.21.34h.72a.94.94,0,0,0,1.87,0h.73l.17-.34h.26l.17-.27c16.91.07,34.21-1,50.75-4.12v0h0v0h0a166.2,166.2,0,0,0,32.48-4.11h1.89l.25-.56,1.6-2,.11-3.5,1.19-1.86.16-.87a105.37,105.37,0,0,0,14-3.5l1-1.09h0l-.2,0"/></g></g></svg>